<svg data-v-0dd9719b="" version="1.0" xmlns="http://www.w3.org/2000/svg" xmlns:xlink="http://www.w3.org/1999/xlink" width="100%" height="100%" viewBox="0 0 340.000000 250.000000" preserveAspectRatio="xMidYMid meet" color-interpolation-filters="sRGB" style="margin: auto;"> <rect data-v-0dd9719b="" x="0" y="0" width="100%" height="100%" fill="#fff" fill-opacity="1" class="background"></rect> <rect data-v-0dd9719b="" x="0" y="0" width="100%" height="100%" fill="url(#watermark)" fill-opacity="1" class="watermarklayer"></rect> <g data-v-0dd9719b="" fill="#333" class="icon-text-wrapper icon-svg-group iconsvg" transform="translate(49.779998779296875,90.71036529541016)"><g class="iconsvg-imagesvg" transform="translate(0,0)"><g><rect fill="#333" fill-opacity="0" stroke-width="2" x="0" y="0" width="60" height="68.57926620185164" class="image-rect"></rect> <svg x="0" y="0" width="60" height="68.57926620185164" filtersec="colorsb2311077759" class="image-svg-svg primary" style="overflow: visible;"><svg xmlns="http://www.w3.org/2000/svg" viewBox="0 0 87.48999786376953 100"><path d="M43.73 48.5l5.75-3.32-23.2-13.39a11.24 11.24 0 0 1-8.28-.74c-2.77-1.6-2.77-4.18 0-5.78a11.06 11.06 0 0 1 10 0c2.24 1.29 2.67 3.25 1.27 4.79l23.2 13.39 9.89-5.71-23.19-13.39a11.24 11.24 0 0 1-8.29-.74c-2.77-1.6-2.77-4.18 0-5.78a11 11 0 0 1 10 0c2.24 1.3 2.67 3.25 1.28 4.79L65.37 36l9.89-5.71-23.2-13.38a11.31 11.31 0 0 1-8.3-.73c-2.77-1.6-2.76-4.2 0-5.79a11.08 11.08 0 0 1 10 0c2.24 1.29 2.66 3.25 1.26 4.79l23.2 13.39 7.49-4.32L43.73 0l-42 24.25z" fill="#0087ff"></path><path d="M42 51.5l-5.74-3.32V75a11.24 11.24 0 0 1 3.5 7.54c0 3.2-2.24 4.5-5 2.9a11.07 11.07 0 0 1-5-8.68c0-2.59 1.47-3.93 3.51-3.49V46.45l-9.89-5.71v26.79a11.25 11.25 0 0 1 3.51 7.54c0 3.2-2.24 4.5-5 2.9a11.07 11.07 0 0 1-5-8.68c0-2.58 1.48-3.93 3.51-3.49V39l-9.92-5.7v26.79A11.26 11.26 0 0 1 14 67.64c0 3.2-2.24 4.48-5 2.89a11.09 11.09 0 0 1-5-8.68c0-2.59 1.48-3.93 3.51-3.49V31.57L0 27.25v48.5L42 100z" fill="#2a3294"></path><path d="M45.46 51.5V100l5.75-3.32V67.89c-2 .44-3.51-.9-3.51-3.49a11.07 11.07 0 0 1 5-8.68c2.77-1.6 5-.3 5 2.9a11.25 11.25 0 0 1-3.51 7.54V95l9.89-5.71V60.45c-2 .44-3.51-.9-3.51-3.49a11.07 11.07 0 0 1 5-8.68c2.77-1.6 5-.3 5 2.9a11.25 11.25 0 0 1-3.51 7.54v28.79L77 81.8V53c-2 .44-3.52-.9-3.52-3.49a11.08 11.08 0 0 1 5-8.68c2.76-1.59 5-.31 5 2.89A11.27 11.27 0 0 1 80 51.28v28.79l7.49-4.32v-48.5z" fill="#ff006f"></path></svg></svg> <!----></g></g> <g transform="translate(67,5.7683868408203125)"><g data-gra="path-name" fill-rule="" class="tp-name iconsvg-namesvg" transform="translate(0,0)"><g transform="scale(1)"><g><path d="M40.37-21.46L25.29-21.46Q26.1-18.63 27.72-15.75 29.34-12.87 31.63-10.13 33.93-7.38 36.79-4.91 39.64-2.43 42.88-0.4L42.88-0.4 39.28 4.95Q36.63 3.24 34.13 1.06 31.63-1.13 29.45-3.65 27.27-6.17 25.45-8.91 23.63-11.65 22.27-14.49L22.27-14.49Q19.93-9.31 15.68-4.37 11.43 0.58 5.31 4.77L5.31 4.77 1.03-0.04Q4.41-2.21 7.27-4.7 10.13-7.2 12.4-9.92 14.67-12.64 16.22-15.55 17.77-18.45 18.5-21.46L18.5-21.46 3.87-21.46 3.87-27.27 19.08-27.27 19.08-35.59 24.93-35.37 24.93-27.27 40.37-27.27 40.37-21.46ZM16.43-4.14L20.16-7.88Q20.88-7.2 21.67-6.37 22.45-5.54 23.27-4.63 24.07-3.73 24.84-2.81 25.61-1.89 26.28-1.03L26.28-1.03 22.41 2.97Q21.78 2.16 21.04 1.19 20.29 0.22 19.51-0.72 18.72-1.67 17.93-2.56 17.14-3.46 16.43-4.14L16.43-4.14ZM83.38-9.45L74.11-9.45 74.11-1.3Q74.11 0.32 73.89 1.35 73.66 2.38 73.06 2.99 72.45 3.6 71.33 3.89 70.2 4.18 68.44 4.37L68.44 4.37 65.43 4.68 63.86-0.49 66.33-0.77Q67.64-0.9 68.02-1.53 68.4-2.16 68.4-3.24L68.4-3.24 68.4-9.45 58.19-9.45 58.19-27 66.6-27 67.41-29.29 55.98-29.29 55.98-19.13Q55.98-14.58 55.64-11.18 55.3-7.79 54.61-5.02 53.91-2.25 52.83 0.11 51.75 2.48 50.22 4.95L50.22 4.95 45.09 1.67Q46.58-0.45 47.59-2.45 48.6-4.46 49.23-6.82 49.86-9.18 50.15-12.11 50.45-15.03 50.45-18.99L50.45-18.99 50.45-34.52 85.63-34.52 85.63-29.29 73.39-29.29 72.63-27 83.38-27 83.38-9.45ZM78.16-22.36L63.45-22.36 63.45-20.56 78.16-20.56 78.16-22.36ZM63.45-15.88L63.45-14.08 78.16-14.08 78.16-15.88 63.45-15.88ZM61.47-9.31L65.75-6.17Q64.98-5.04 63.97-3.76 62.95-2.48 61.81-1.15 60.66 0.18 59.45 1.42 58.23 2.65 57.11 3.73L57.11 3.73 53.46-0.45Q55.84-2.48 57.94-4.79 60.03-7.11 61.47-9.31L61.47-9.31ZM74.84-5.58L78.3-9.09Q79.25-8.32 80.41-7.29 81.59-6.25 82.78-5.13 83.97-4 85.09-2.88 86.22-1.75 87.12-0.81L87.12-0.81 83.56 3.15Q82.71 2.16 81.56 0.94 80.41-0.27 79.2-1.48 77.98-2.7 76.84-3.8 75.69-4.91 74.84-5.58L74.84-5.58ZM131 2.7L126.54 5Q126.31 4.37 126.02 3.65 125.73 2.92 125.37 2.11L125.37 2.11Q124.11 2.21 122.15 2.34 120.19 2.48 117.97 2.63 115.74 2.79 113.42 2.95 111.11 3.1 109.17 3.24 107.23 3.38 105.84 3.49 104.45 3.6 104.09 3.6L104.09 3.6 103.86-1.62Q104.17-1.62 105.1-1.64 106.02-1.67 107.39-1.73 108.77-1.8 110.43-1.87 112.09-1.93 113.89-2.02L113.89-2.02 113.89-6.43 105.08-6.43 105.08-19.26 113.89-19.26 113.89-21.69 106.47-21.69 106.47-34.29 126.68-34.29 126.68-21.69 119.16-21.69 119.16-19.26 128.2-19.26 128.2-6.43 126.31-6.43Q126.9-5.49 127.58-4.27 128.25-3.06 128.9-1.8 129.56-0.54 130.09 0.65 130.63 1.84 131 2.7L131 2.7ZM97.02-14.85L103.95-14.85Q103.86-13.77 103.77-12.01 103.68-10.26 103.57-8.32 103.45-6.39 103.34-4.43 103.23-2.48 103.14-0.99L103.14-0.99Q103.05 0.58 102.67 1.53 102.28 2.48 101.61 3.01 100.94 3.55 99.95 3.78 98.95 4 97.7 4.09L97.7 4.09 94.32 4.37 92.88-0.63 96.75-0.99Q97.2-1.03 97.47-1.13 97.74-1.21 97.88-1.48 98.01-1.75 98.06-2.21 98.1-2.65 98.19-3.46L98.19-3.46Q98.23-3.92 98.3-4.91 98.37-5.89 98.44-6.97 98.5-8.05 98.55-8.91 98.59-9.76 98.59-9.95L98.59-9.95 91.58-9.95 92.7-24.48 98.82-24.48 98.82-28.93 92.16-28.93 92.16-34.2 104.04-34.2 104.04-19.48 97.29-19.48 97.02-14.85ZM111.47-29.74L111.47-26.23 121.72-26.23 121.72-29.74 111.47-29.74ZM109.84-10.98L113.89-10.98 113.89-14.67 109.84-14.67 109.84-10.98ZM123.3-14.67L119.16-14.67 119.16-10.98 123.3-10.98 123.3-14.67ZM119.16-6.43L119.16-2.25Q120.24-2.34 121.25-2.36 122.27-2.38 123.16-2.48L123.16-2.48Q122.81-3.1 122.51-3.62 122.22-4.14 121.95-4.59L121.95-4.59 125.73-6.43 119.16-6.43ZM174.47-9.67L174.47-4.09 158.04-4.09 158.04 4.59 152.24 4.59 152.24-4.09 135.5-4.09 135.5-9.67 152.24-9.67 152.24-13.5 157-13.37Q155.7-13.86 155.09-15.05 154.49-16.25 154.49-18.54L154.49-18.54 154.49-20.02Q153.13-19.53 151.72-19.06 150.3-18.59 148.81-18.09L148.81-18.09 147.38-22.23 147.38-12.06 141.71-12.06 141.71-21.6Q140.81-20.75 139.86-19.87 138.91-18.99 137.79-18.04L137.79-18.04 135.05-22.68Q138.42-25.65 141.28-29.36 144.13-33.07 146.16-36.67L146.16-36.67 150.93-34.56Q150.03-32.85 149.15-31.34 148.28-29.83 147.38-28.48L147.38-28.48 147.38-23.36Q149.31-23.94 151.06-24.55 152.82-25.15 154.49-25.79L154.49-25.79 154.49-35.82 160.2-35.64 160.2-28.3Q162.76-29.61 165.15-31.03 167.53-32.45 169.97-34.06L169.97-34.06 172.57-29.34Q169.61-27.22 166.59-25.54 163.57-23.85 160.2-22.32L160.2-22.32 160.2-20.29Q160.2-18.99 160.61-18.56 161.01-18.13 162.18-18.04L162.18-18.04Q164.25-17.91 166.23-18.04L166.23-18.04Q167-18.09 167.49-18.18 167.99-18.27 168.3-18.47 168.62-18.68 168.8-19.06 168.97-19.44 169.06-20.07L169.06-20.07Q169.16-20.75 169.22-21.44 169.29-22.14 169.29-22.81L169.29-22.81 174.28-21.15Q174.24-20.38 174.17-19.73 174.11-19.08 174.01-18.31L174.01-18.31Q173.79-16.65 173.34-15.62 172.89-14.58 172.1-13.99 171.31-13.41 170.12-13.16 168.93-12.91 167.22-12.87L167.22-12.87Q163.49-12.73 159.8-12.87L159.8-12.87Q159.3-12.91 158.87-12.94 158.44-12.96 158.04-13.05L158.04-13.05 158.04-9.67 174.47-9.67Z" transform="translate(-1.0299999713897705, 36.66999816894531)"></path></g> <!----> <!----> <!----> <!----> <!----> <!----> <!----></g></g> <g data-gra="path-slogan" fill-rule="" class="tp-slogan iconsvg-slogansvg" fill="#333" transform="translate(27.450000762939453,47.66999816894531)"><!----> <!----> <g transform="scale(1, 1)"><g transform="scale(1)"><path d="M3.09-7.59L0.19-7.59L0.19-8.58L7.13-8.58L7.13-7.59L4.22-7.59L4.22 0L3.09 0L3.09-7.59ZM13.83 0L12.98-2.48L9.52-2.48L8.63 0L7.45 0L10.69-8.58L12-8.58L15.09 0L13.83 0ZM11.25-7.31L9.89-3.52L12.56-3.52L11.30-7.31L11.25-7.31ZM16.31-8.58L17.48-8.58L17.48 0L16.31 0L16.31-8.58ZM26.39-8.58L23.16-3.47L23.16 0L21.98 0L21.98-3.47L18.75-8.58L20.11-8.58L22.55-4.45L25.03-8.58L26.39-8.58ZM33.09-3.19L33.09-8.58L34.27-8.58L34.27-3.05Q34.13 0.05 30.75 0.14L30.75 0.14Q27.61 0.05 27.47-2.86L27.47-2.86L27.47-8.58L28.64-8.58L28.64-3.19Q28.69-0.84 30.80-0.80L30.80-0.80Q33.09-0.84 33.09-3.19L33.09-3.19ZM41.72 0L40.88-2.48L37.41-2.48L36.52 0L35.34 0L38.58-8.58L39.89-8.58L42.98 0L41.72 0ZM39.14-7.31L37.78-3.52L40.45-3.52L39.19-7.31L39.14-7.31ZM45.42-8.58L49.73-1.64L49.73-8.58L50.86-8.58L50.86 0L49.55 0L45.19-6.94L45.14-6.94L45.14 0L44.02 0L44.02-8.58L45.42-8.58ZM60.98-1.08L60.09-1.78L60.70-2.48L61.78-1.64Q62.77-2.63 62.77-4.27L62.77-4.27Q62.58-7.64 59.77-7.83L59.77-7.83Q56.91-7.69 56.77-4.27L56.77-4.27Q56.91-0.94 59.77-0.80L59.77-0.80Q60.47-0.80 60.98-1.08L60.98-1.08ZM62.72-0.94L63.84-0.05L63.28 0.56L61.97-0.33Q61.13 0.14 59.77 0.14L59.77 0.14Q55.83 0 55.55-4.27L55.55-4.27Q55.78-8.72 59.77-8.81L59.77-8.81Q63.66-8.67 63.94-4.27L63.94-4.27Q63.89-2.20 62.72-0.94L62.72-0.94ZM65.48-8.58L66.66-8.58L66.66 0L65.48 0L65.48-8.58ZM74.30 0L73.45-2.48L69.98-2.48L69.09 0L67.92 0L71.16-8.58L72.47-8.58L75.56 0L74.30 0ZM71.72-7.31L70.36-3.52L73.03-3.52L71.77-7.31L71.72-7.31ZM78-8.58L82.31-1.64L82.31-8.58L83.44-8.58L83.44 0L82.13 0L77.77-6.94L77.72-6.94L77.72 0L76.59 0L76.59-8.58L78-8.58ZM91.64-3.61L89.02-3.61L89.02-4.59L92.77-4.59L92.77 0L92.02 0L91.73-1.08Q90.75 0.09 88.92 0.14L88.92 0.14Q87.19 0.14 86.25-0.75L86.25-0.75Q84.84-2.06 84.89-4.36L84.89-4.36Q85.22-8.63 88.97-8.81L88.97-8.81Q92.16-8.63 92.63-6L92.63-6L91.50-6Q91.03-7.78 88.92-7.83L88.92-7.83Q86.25-7.64 86.11-4.31L86.11-4.31Q86.11-0.75 88.97-0.75L88.97-0.75Q90-0.75 90.75-1.31L90.75-1.31Q91.69-2.06 91.64-3.61L91.64-3.61ZM95.72-5.06L100.22-5.06L100.22-8.58L101.39-8.58L101.39 0L100.22 0L100.22-3.98L95.72-3.98L95.72 0L94.55 0L94.55-8.58L95.72-8.58L95.72-5.06ZM108.84-3.19L108.84-8.58L110.02-8.58L110.02-3.05Q109.88 0.05 106.50 0.14L106.50 0.14Q103.36 0.05 103.22-2.86L103.22-2.86L103.22-8.58L104.39-8.58L104.39-3.19Q104.44-0.84 106.55-0.80L106.55-0.80Q108.84-0.84 108.84-3.19L108.84-3.19ZM117.47 0L116.63-2.48L113.16-2.48L112.27 0L111.09 0L114.33-8.58L115.64-8.58L118.73 0L117.47 0ZM114.89-7.31L113.53-3.52L116.20-3.52L114.94-7.31L114.89-7.31Z" transform="translate(-0.1875, 8.8125)"></path></g></g></g></g></g><defs v-gra="od"></defs></svg>